<mxfile host="app.diagrams.net" modified="2020-04-13T10:57:54.324Z" agent="5.0 (Windows)" etag="GxvR148fTPAiAzMh3CPl" version="12.9.11" type="github">
  <diagram id="sx22odsF3yvGZIQwLneW" name="Page-1">
    <mxGraphModel dx="1422" dy="769" grid="1" gridSize="10" guides="1" tooltips="1" connect="1" arrows="1" fold="1" page="1" pageScale="1" pageWidth="827" pageHeight="1169" math="0" shadow="0">
      <root>
        <mxCell id="0" />
        <mxCell id="1" parent="0" />
        <mxCell id="Yn7ocNPaMwcuOcVTkm1H-1" value="&lt;div&gt;A&lt;/div&gt;" style="ellipse;whiteSpace=wrap;html=1;" parent="1" vertex="1">
          <mxGeometry x="150" y="230" width="20" height="20" as="geometry" />
        </mxCell>
        <mxCell id="Yn7ocNPaMwcuOcVTkm1H-2" value="E" style="ellipse;whiteSpace=wrap;html=1;" parent="1" vertex="1">
          <mxGeometry x="430" y="230" width="20" height="20" as="geometry" />
        </mxCell>
        <mxCell id="Yn7ocNPaMwcuOcVTkm1H-3" value="D" style="ellipse;whiteSpace=wrap;html=1;" parent="1" vertex="1">
          <mxGeometry x="310" y="310" width="20" height="20" as="geometry" />
        </mxCell>
        <mxCell id="Yn7ocNPaMwcuOcVTkm1H-4" value="C" style="ellipse;whiteSpace=wrap;html=1;" parent="1" vertex="1">
          <mxGeometry x="190" y="350" width="20" height="20" as="geometry" />
        </mxCell>
        <mxCell id="Yn7ocNPaMwcuOcVTkm1H-5" value="B" style="ellipse;whiteSpace=wrap;html=1;" parent="1" vertex="1">
          <mxGeometry x="310" y="190" width="20" height="20" as="geometry" />
        </mxCell>
        <mxCell id="Yn7ocNPaMwcuOcVTkm1H-6" value="" style="endArrow=classic;html=1;exitX=0.5;exitY=0;exitDx=0;exitDy=0;entryX=0.5;entryY=1;entryDx=0;entryDy=0;startArrow=classicThin;startFill=1;" parent="1" source="Yn7ocNPaMwcuOcVTkm1H-3" target="Yn7ocNPaMwcuOcVTkm1H-5" edge="1">
          <mxGeometry width="50" height="50" relative="1" as="geometry">
            <mxPoint x="330" y="330" as="sourcePoint" />
            <mxPoint x="380" y="280" as="targetPoint" />
          </mxGeometry>
        </mxCell>
        <mxCell id="Yn7ocNPaMwcuOcVTkm1H-7" value="22" style="text;html=1;align=center;verticalAlign=middle;resizable=0;points=[];labelBackgroundColor=#ffffff;" parent="Yn7ocNPaMwcuOcVTkm1H-6" vertex="1" connectable="0">
          <mxGeometry x="-0.2419" y="1" relative="1" as="geometry">
            <mxPoint as="offset" />
          </mxGeometry>
        </mxCell>
        <mxCell id="Yn7ocNPaMwcuOcVTkm1H-8" value="" style="endArrow=classic;html=1;entryX=1.01;entryY=0.26;entryDx=0;entryDy=0;entryPerimeter=0;startArrow=classic;startFill=1;" parent="1" source="Yn7ocNPaMwcuOcVTkm1H-3" target="Yn7ocNPaMwcuOcVTkm1H-4" edge="1">
          <mxGeometry width="50" height="50" relative="1" as="geometry">
            <mxPoint x="330" y="320" as="sourcePoint" />
            <mxPoint x="330" y="220" as="targetPoint" />
          </mxGeometry>
        </mxCell>
        <mxCell id="Yn7ocNPaMwcuOcVTkm1H-9" value="4" style="text;html=1;align=center;verticalAlign=middle;resizable=0;points=[];labelBackgroundColor=#ffffff;" parent="Yn7ocNPaMwcuOcVTkm1H-8" vertex="1" connectable="0">
          <mxGeometry x="-0.3621" y="1" relative="1" as="geometry">
            <mxPoint as="offset" />
          </mxGeometry>
        </mxCell>
        <mxCell id="Yn7ocNPaMwcuOcVTkm1H-10" value="" style="endArrow=classic;html=1;exitX=0.97;exitY=0.28;exitDx=0;exitDy=0;entryX=0;entryY=1;entryDx=0;entryDy=0;exitPerimeter=0;startArrow=classic;startFill=1;" parent="1" source="Yn7ocNPaMwcuOcVTkm1H-3" target="Yn7ocNPaMwcuOcVTkm1H-2" edge="1">
          <mxGeometry width="50" height="50" relative="1" as="geometry">
            <mxPoint x="340" y="330" as="sourcePoint" />
            <mxPoint x="340" y="230" as="targetPoint" />
          </mxGeometry>
        </mxCell>
        <mxCell id="Yn7ocNPaMwcuOcVTkm1H-11" value="&lt;div&gt;20&lt;/div&gt;" style="text;html=1;align=center;verticalAlign=middle;resizable=0;points=[];labelBackgroundColor=#ffffff;" parent="Yn7ocNPaMwcuOcVTkm1H-10" vertex="1" connectable="0">
          <mxGeometry x="0.0795" relative="1" as="geometry">
            <mxPoint as="offset" />
          </mxGeometry>
        </mxCell>
        <mxCell id="Yn7ocNPaMwcuOcVTkm1H-12" value="" style="endArrow=classic;html=1;exitX=-0.03;exitY=0.24;exitDx=0;exitDy=0;entryX=0.99;entryY=0.68;entryDx=0;entryDy=0;startArrow=classicThin;startFill=1;exitPerimeter=0;entryPerimeter=0;" parent="1" source="Yn7ocNPaMwcuOcVTkm1H-2" target="Yn7ocNPaMwcuOcVTkm1H-5" edge="1">
          <mxGeometry width="50" height="50" relative="1" as="geometry">
            <mxPoint x="330" y="320" as="sourcePoint" />
            <mxPoint x="330" y="220" as="targetPoint" />
          </mxGeometry>
        </mxCell>
        <mxCell id="Yn7ocNPaMwcuOcVTkm1H-13" value="5" style="text;html=1;align=center;verticalAlign=middle;resizable=0;points=[];labelBackgroundColor=#ffffff;" parent="Yn7ocNPaMwcuOcVTkm1H-12" vertex="1" connectable="0">
          <mxGeometry x="0.1831" relative="1" as="geometry">
            <mxPoint as="offset" />
          </mxGeometry>
        </mxCell>
        <mxCell id="Yn7ocNPaMwcuOcVTkm1H-14" value="7" style="endArrow=classic;html=1;exitX=0.83;exitY=-0.06;exitDx=0;exitDy=0;entryX=0;entryY=1;entryDx=0;entryDy=0;startArrow=classicThin;startFill=1;exitPerimeter=0;" parent="1" source="Yn7ocNPaMwcuOcVTkm1H-4" target="Yn7ocNPaMwcuOcVTkm1H-5" edge="1">
          <mxGeometry width="50" height="50" relative="1" as="geometry">
            <mxPoint x="340" y="330" as="sourcePoint" />
            <mxPoint x="340" y="230" as="targetPoint" />
          </mxGeometry>
        </mxCell>
        <mxCell id="Yn7ocNPaMwcuOcVTkm1H-15" value="" style="endArrow=classic;html=1;exitX=0;exitY=0;exitDx=0;exitDy=0;entryX=0.69;entryY=1;entryDx=0;entryDy=0;startArrow=classicThin;startFill=1;entryPerimeter=0;" parent="1" source="Yn7ocNPaMwcuOcVTkm1H-4" target="Yn7ocNPaMwcuOcVTkm1H-1" edge="1">
          <mxGeometry width="50" height="50" relative="1" as="geometry">
            <mxPoint x="350" y="340" as="sourcePoint" />
            <mxPoint x="350" y="240" as="targetPoint" />
          </mxGeometry>
        </mxCell>
        <mxCell id="Yn7ocNPaMwcuOcVTkm1H-16" value="6" style="text;html=1;align=center;verticalAlign=middle;resizable=0;points=[];labelBackgroundColor=#ffffff;" parent="Yn7ocNPaMwcuOcVTkm1H-15" vertex="1" connectable="0">
          <mxGeometry x="0.2242" y="-1" relative="1" as="geometry">
            <mxPoint as="offset" />
          </mxGeometry>
        </mxCell>
        <mxCell id="Yn7ocNPaMwcuOcVTkm1H-17" value="" style="endArrow=classic;html=1;exitX=-0.03;exitY=0.64;exitDx=0;exitDy=0;entryX=1.09;entryY=0.3;entryDx=0;entryDy=0;startArrow=classicThin;startFill=1;entryPerimeter=0;exitPerimeter=0;" parent="1" source="Yn7ocNPaMwcuOcVTkm1H-5" target="Yn7ocNPaMwcuOcVTkm1H-1" edge="1">
          <mxGeometry width="50" height="50" relative="1" as="geometry">
            <mxPoint x="360" y="350" as="sourcePoint" />
            <mxPoint x="360" y="250" as="targetPoint" />
          </mxGeometry>
        </mxCell>
        <mxCell id="Yn7ocNPaMwcuOcVTkm1H-18" value="15" style="text;html=1;align=center;verticalAlign=middle;resizable=0;points=[];labelBackgroundColor=#ffffff;" parent="Yn7ocNPaMwcuOcVTkm1H-17" vertex="1" connectable="0">
          <mxGeometry x="0.2538" y="-1" relative="1" as="geometry">
            <mxPoint as="offset" />
          </mxGeometry>
        </mxCell>
        <mxCell id="Yn7ocNPaMwcuOcVTkm1H-19" value="&lt;table style=&quot;font-size: 1em ; width: 100% ; height: 100%&quot; cellspacing=&quot;0&quot; cellpadding=&quot;4&quot; border=&quot;1&quot;&gt;&lt;tbody&gt;&lt;tr&gt;&lt;th&gt;Node&lt;br&gt;&lt;/th&gt;&lt;th&gt;Path&lt;br&gt;&lt;/th&gt;&lt;/tr&gt;&lt;tr&gt;&lt;td&gt;A&lt;br&gt;&lt;/td&gt;&lt;td&gt;B,C,A&lt;br&gt;&lt;/td&gt;&lt;/tr&gt;&lt;tr&gt;&lt;td&gt;B&lt;br&gt;&lt;/td&gt;&lt;td&gt;B&lt;br&gt;&lt;/td&gt;&lt;/tr&gt;&lt;tr&gt;&lt;td&gt;C&lt;br&gt;&lt;/td&gt;&lt;td&gt;B,C&lt;br&gt;&lt;/td&gt;&lt;/tr&gt;&lt;tr&gt;&lt;td&gt;D&lt;/td&gt;&lt;td&gt;B,C,D&lt;/td&gt;&lt;/tr&gt;&lt;/tbody&gt;&lt;/table&gt; " style="verticalAlign=top;align=left;overflow=fill;fontSize=12;fontFamily=Helvetica;html=1" parent="1" vertex="1">
          <mxGeometry x="490" y="190" width="100" height="130" as="geometry" />
        </mxCell>
        <mxCell id="Yn7ocNPaMwcuOcVTkm1H-20" value="&lt;table style=&quot;font-size: 1em ; width: 100% ; height: 100%&quot; cellspacing=&quot;0&quot; cellpadding=&quot;4&quot; border=&quot;1&quot;&gt;&lt;tbody&gt;&lt;tr&gt;&lt;th&gt;Node&lt;br&gt;&lt;/th&gt;&lt;th&gt;Path&lt;br&gt;&lt;/th&gt;&lt;/tr&gt;&lt;tr&gt;&lt;td&gt;A&lt;br&gt;&lt;/td&gt;&lt;td&gt;C&lt;br&gt;&lt;/td&gt;&lt;/tr&gt;&lt;tr&gt;&lt;td&gt;B&lt;br&gt;&lt;/td&gt;&lt;td&gt;C,B&lt;br&gt;&lt;/td&gt;&lt;/tr&gt;&lt;tr&gt;&lt;td&gt;C&lt;br&gt;&lt;/td&gt;&lt;td&gt;C&lt;br&gt;&lt;/td&gt;&lt;/tr&gt;&lt;tr&gt;&lt;td&gt;E&lt;/td&gt;&lt;td&gt;C,B,E&lt;br&gt;&lt;/td&gt;&lt;/tr&gt;&lt;/tbody&gt;&lt;/table&gt; " style="verticalAlign=top;align=left;overflow=fill;fontSize=12;fontFamily=Helvetica;html=1" parent="1" vertex="1">
          <mxGeometry x="330" y="340" width="100" height="130" as="geometry" />
        </mxCell>
        <mxCell id="Yn7ocNPaMwcuOcVTkm1H-21" value="&lt;table style=&quot;font-size: 1em ; width: 100% ; height: 100%&quot; cellspacing=&quot;0&quot; cellpadding=&quot;4&quot; border=&quot;1&quot;&gt;&lt;tbody&gt;&lt;tr&gt;&lt;th&gt;Node&lt;br&gt;&lt;/th&gt;&lt;th&gt;Path&lt;br&gt;&lt;/th&gt;&lt;/tr&gt;&lt;tr&gt;&lt;td&gt;A&lt;br&gt;&lt;/td&gt;&lt;td&gt;C,A&lt;br&gt;&lt;/td&gt;&lt;/tr&gt;&lt;tr&gt;&lt;td&gt;C&lt;br&gt;&lt;/td&gt;&lt;td&gt;C&lt;br&gt;&lt;/td&gt;&lt;/tr&gt;&lt;tr&gt;&lt;td&gt;D&lt;br&gt;&lt;/td&gt;&lt;td&gt;C,D&lt;br&gt;&lt;/td&gt;&lt;/tr&gt;&lt;tr&gt;&lt;td&gt;E&lt;/td&gt;&lt;td&gt;E&lt;/td&gt;&lt;/tr&gt;&lt;/tbody&gt;&lt;/table&gt; " style="verticalAlign=top;align=left;overflow=fill;fontSize=12;fontFamily=Helvetica;html=1" parent="1" vertex="1">
          <mxGeometry x="280" y="50" width="100" height="130" as="geometry" />
        </mxCell>
        <mxCell id="Yn7ocNPaMwcuOcVTkm1H-22" value="&lt;table style=&quot;font-size: 1em ; width: 100% ; height: 100%&quot; cellspacing=&quot;0&quot; cellpadding=&quot;4&quot; border=&quot;1&quot;&gt;&lt;tbody&gt;&lt;tr&gt;&lt;th&gt;Node&lt;br&gt;&lt;/th&gt;&lt;th&gt;Path&lt;/th&gt;&lt;/tr&gt;&lt;tr&gt;&lt;td&gt;B&lt;br&gt;&lt;/td&gt;&lt;td&gt;C,B&lt;br&gt;&lt;/td&gt;&lt;/tr&gt;&lt;tr&gt;&lt;td&gt;C&lt;br&gt;&lt;/td&gt;&lt;td&gt;C&lt;br&gt;&lt;/td&gt;&lt;/tr&gt;&lt;tr&gt;&lt;td&gt;D&lt;br&gt;&lt;/td&gt;&lt;td&gt;C,D&lt;br&gt;&lt;/td&gt;&lt;/tr&gt;&lt;tr&gt;&lt;td&gt;E&lt;/td&gt;&lt;td&gt;C,B,E&lt;/td&gt;&lt;/tr&gt;&lt;/tbody&gt;&lt;/table&gt; " style="verticalAlign=top;align=left;overflow=fill;fontSize=12;fontFamily=Helvetica;html=1" parent="1" vertex="1">
          <mxGeometry x="40" y="180" width="100" height="130" as="geometry" />
        </mxCell>
        <mxCell id="Yn7ocNPaMwcuOcVTkm1H-23" value="&lt;table style=&quot;font-size: 1em ; width: 100% ; height: 100%&quot; cellspacing=&quot;0&quot; cellpadding=&quot;4&quot; border=&quot;1&quot;&gt;&lt;tbody&gt;&lt;tr&gt;&lt;th&gt;Node&lt;br&gt;&lt;/th&gt;&lt;th&gt;Path&lt;/th&gt;&lt;/tr&gt;&lt;tr&gt;&lt;td&gt;A&lt;br&gt;&lt;/td&gt;&lt;td&gt;A&lt;br&gt;&lt;/td&gt;&lt;/tr&gt;&lt;tr&gt;&lt;td&gt;B&lt;br&gt;&lt;/td&gt;&lt;td&gt;B&lt;br&gt;&lt;/td&gt;&lt;/tr&gt;&lt;tr&gt;&lt;td&gt;D&lt;/td&gt;&lt;td&gt;D&lt;br&gt;&lt;/td&gt;&lt;/tr&gt;&lt;tr&gt;&lt;td&gt;E&lt;/td&gt;&lt;td&gt;B,E&lt;/td&gt;&lt;/tr&gt;&lt;/tbody&gt;&lt;/table&gt; " style="verticalAlign=top;align=left;overflow=fill;fontSize=12;fontFamily=Helvetica;html=1" parent="1" vertex="1">
          <mxGeometry x="80" y="350" width="100" height="130" as="geometry" />
        </mxCell>
      </root>
    </mxGraphModel>
  </diagram>
</mxfile>
